<?xml version="1.0" encoding="UTF-8"?>
<svg version="1.1" xmlns="http://www.w3.org/2000/svg" width="24" height="24">
<path d="M0 0 C1.12535156 0.00580078 1.12535156 0.00580078 2.2734375 0.01171875 C3.02367187 0.00785156 3.77390625 0.00398437 4.546875 0 C10.14682697 0.01010822 10.14682697 0.01010822 11.2734375 1.13671875 C11.37324964 3.81403255 11.41223625 6.4597605 11.3984375 9.13671875 C11.40423828 10.26207031 11.40423828 10.26207031 11.41015625 11.41015625 C11.40004803 17.01010822 11.40004803 17.01010822 10.2734375 18.13671875 C8.60726635 18.17735707 6.93955655 18.17943975 5.2734375 18.13671875 C5.2734375 15.82671875 5.2734375 13.51671875 5.2734375 11.13671875 C5.9334375 11.13671875 6.5934375 11.13671875 7.2734375 11.13671875 C7.2734375 10.47671875 7.2734375 9.81671875 7.2734375 9.13671875 C6.6134375 9.13671875 5.9534375 9.13671875 5.2734375 9.13671875 C5.2734375 7.81671875 5.2734375 6.49671875 5.2734375 5.13671875 C6.2634375 5.13671875 7.2534375 5.13671875 8.2734375 5.13671875 C8.2734375 4.47671875 8.2734375 3.81671875 8.2734375 3.13671875 C6.2572142 3.85235141 6.2572142 3.85235141 4.2734375 5.13671875 C3.46814861 7.18672746 3.46814861 7.18672746 3.2734375 9.13671875 C2.6134375 9.13671875 1.9534375 9.13671875 1.2734375 9.13671875 C1.2734375 9.79671875 1.2734375 10.45671875 1.2734375 11.13671875 C1.9334375 11.13671875 2.5934375 11.13671875 3.2734375 11.13671875 C3.2734375 13.44671875 3.2734375 15.75671875 3.2734375 18.13671875 C1.79436858 18.16361091 0.31516267 18.18306496 -1.1640625 18.19921875 C-2.39962891 18.21662109 -2.39962891 18.21662109 -3.66015625 18.234375 C-5.7265625 18.13671875 -5.7265625 18.13671875 -6.7265625 17.13671875 C-6.82637464 14.45940495 -6.86536125 11.813677 -6.8515625 9.13671875 C-6.85542969 8.38648438 -6.85929688 7.63625 -6.86328125 6.86328125 C-6.8512779 0.21342273 -6.64985852 0.01200335 0 0 Z " fill="#FFFFFF" transform="translate(9.7265625,2.86328125)"/>
</svg>
