<?xml version="1.0" encoding="UTF-8"?>
<svg version="1.1" xmlns="http://www.w3.org/2000/svg" width="24" height="24">
<path d="M0 0 C3.3 0 6.6 0 10 0 C9.69595322 1.67225729 9.35371498 3.33753959 9 5 C8.7525 6.175625 8.505 7.35125 8.25 8.5625 C6.75610072 12.67072301 5.87744149 13.98049923 2 16 C-1.37675332 16.42010002 -4.63122088 16.51276992 -8 16 C-8.66 15.34 -9.32 14.68 -10 14 C-9.34 13.34 -8.68 12.68 -8 12 C-8.19985661 9.53950765 -8.19985661 9.53950765 -8.875 6.875 C-9.07867187 5.96492187 -9.28234375 5.05484375 -9.4921875 4.1171875 C-9.65976563 3.41851562 -9.82734375 2.71984375 -10 2 C-6.20442119 2 -4.37097383 2.50178941 -1 4 C-0.67 2.68 -0.34 1.36 0 0 Z " fill="#000000" transform="translate(12,4)"/>
</svg>
