<?xml version="1.0" encoding="UTF-8"?>
<svg version="1.1" xmlns="http://www.w3.org/2000/svg" width="24" height="24">
<path d="M0 0 C1.8871875 0.00773438 1.8871875 0.00773438 3.8125 0.015625 C5.070625 0.01046875 6.32875 0.0053125 7.625 0 C10.8125 0.265625 10.8125 0.265625 12.8125 2.265625 C13.078125 5.453125 13.078125 5.453125 13.0625 9.265625 C13.06765625 10.52375 13.0728125 11.781875 13.078125 13.078125 C12.8125 16.265625 12.8125 16.265625 10.8125 18.265625 C7.625 18.53125 7.625 18.53125 3.8125 18.515625 C2.554375 18.52078125 1.29625 18.5259375 0 18.53125 C-3.1875 18.265625 -3.1875 18.265625 -5.1875 16.265625 C-5.453125 13.078125 -5.453125 13.078125 -5.4375 9.265625 C-5.44265625 8.0075 -5.4478125 6.749375 -5.453125 5.453125 C-5.08918713 1.08587052 -4.36725448 0.36393787 0 0 Z M-2.1875 3.265625 C-3.81852777 6.52768054 -3.70731506 9.70117889 -3.1875 13.265625 C-2.35416667 15.43229167 -2.35416667 15.43229167 -0.1875 16.265625 C3.37694611 16.78544006 6.55044446 16.89665277 9.8125 15.265625 C11.45233879 11.98594742 10.99095638 8.89423811 10.8125 5.265625 C9.8225 5.265625 8.8325 5.265625 7.8125 5.265625 C7.8125 4.275625 7.8125 3.285625 7.8125 2.265625 C2.63803224 1.85647741 2.63803224 1.85647741 -2.1875 3.265625 Z " fill="#000000" transform="translate(8.1875,2.734375)"/>
<path d="M0 0 C3 0.25 3 0.25 5 2.25 C5.25 5.25 5.25 5.25 5 8.25 C3 10.25 3 10.25 0 10.5 C-3 10.25 -3 10.25 -5 8.25 C-5.25 5.25 -5.25 5.25 -5 2.25 C-3 0.25 -3 0.25 0 0 Z M-2 3.25 C-2 4.57 -2 5.89 -2 7.25 C-0.68 7.25 0.64 7.25 2 7.25 C2 5.93 2 4.61 2 3.25 C0.68 3.25 -0.64 3.25 -2 3.25 Z " fill="#000000" transform="translate(12,6.75)"/>
</svg>
