<?xml version="1.0" encoding="UTF-8"?>
<svg version="1.1" xmlns="http://www.w3.org/2000/svg" width="24" height="24">
<path d="M0 0 C1.875 1.125 1.875 1.125 3 3 C3.1875 6 3.1875 6 3 9 C3 9.99 3 10.98 3 12 C3.66 12.61875 4.32 13.2375 5 13.875 C7 16 7 16 7.3125 18.6875 C7 21 7 21 6 22 C4.66956375 22.0983721 3.33406656 22.13078592 2 22.1328125 C1.195625 22.13410156 0.39125 22.13539062 -0.4375 22.13671875 C-1.283125 22.13285156 -2.12875 22.12898438 -3 22.125 C-3.845625 22.12886719 -4.69125 22.13273437 -5.5625 22.13671875 C-6.366875 22.13542969 -7.17125 22.13414063 -8 22.1328125 C-8.7425 22.13168457 -9.485 22.13055664 -10.25 22.12939453 C-12 22 -12 22 -13 21 C-12.64476021 14.60568384 -12.64476021 14.60568384 -9.9375 12.0625 C-9.298125 11.711875 -8.65875 11.36125 -8 11 C-8.33 10.34 -8.66 9.68 -9 9 C-9.44720497 3.74534161 -9.44720497 3.74534161 -7.875 1.125 C-5.11909116 -0.52854531 -3.14924548 -0.39365568 0 0 Z M-5.8125 3.1875 C-7.25290328 4.95054109 -7.25290328 4.95054109 -6.6875 7.1875 C-6.460625 7.785625 -6.23375 8.38375 -6 9 C-4.16299211 9.77242269 -4.16299211 9.77242269 -2 10 C-0.08333333 8.91666667 -0.08333333 8.91666667 1 7 C0.77242269 4.83700789 0.77242269 4.83700789 0 3 C-3.00748915 1.84137694 -3.00748915 1.84137694 -5.8125 3.1875 Z M-11 18 C-10.67 18.66 -10.34 19.32 -10 20 C-5.38 20 -0.76 20 4 20 C4.33 19.34 4.66 18.68 5 18 C3.28977272 15.71969696 1.94809908 14.2020539 -0.90625 13.59375 C-5.66208948 13.38080196 -8.01223476 14.01631302 -11 18 Z " fill="#FFFFFF" transform="translate(15,1)"/>
</svg>
