<?xml version="1.0" encoding="UTF-8"?>
<svg version="1.1" xmlns="http://www.w3.org/2000/svg" width="4096" height="4096">
<path d="M0 0 C4.87867476 0.00462172 9.75709961 -0.00227372 14.63574219 -0.02050781 C46.18335908 -0.13718023 77.46702284 0.58746119 108.90454102 3.31567383 C110.14436737 3.42271637 111.38419373 3.52975891 112.66159058 3.64004517 C119.00506654 4.20637972 125.33055951 4.87678262 131.65454102 5.62817383 C132.55548492 5.73205414 133.45642883 5.83593445 134.38467407 5.94296265 C195.62488199 13.00571352 255.74872067 24.92228221 314.90454102 42.31567383 C315.9210675 42.61444427 315.9210675 42.61444427 316.95812988 42.91925049 C388.078662 63.89914375 457.64132227 93.74269629 521.32104492 131.7800293 C523.63455342 133.15519169 525.95817663 134.50923985 528.29125977 135.85083008 C548.16116781 147.29883554 567.27114545 159.96251287 585.90454102 173.31567383 C586.69473633 173.87915527 587.48493164 174.44263672 588.29907227 175.02319336 C597.98559165 181.9333597 607.53289157 188.98387345 616.90454102 196.31567383 C618.05537568 197.20786798 619.20642334 198.09978746 620.35766602 198.99145508 C627.31955447 204.40188088 634.11651902 209.97006037 640.81860352 215.69848633 C643.66059667 218.12259139 646.55744167 220.47298782 649.46704102 222.81567383 C654.54493541 226.94608938 659.35017955 231.32399151 664.14672852 235.77270508 C666.3079465 237.76555622 668.48801071 239.71275168 670.71704102 241.62817383 C682.58513531 251.9948827 693.75636145 263.06347067 704.90454102 274.19067383 C705.54241547 274.82596008 706.18028992 275.46124634 706.8374939 276.11578369 C719.17141021 288.410273 719.17141021 288.410273 724.44067383 294.60668945 C726.95316161 297.53988066 729.63001025 300.31930633 732.27954102 303.12817383 C736.92769635 308.09540476 741.34932638 313.17143416 745.60375977 318.48364258 C748.26364479 321.7576946 751.0172548 324.94065073 753.77954102 328.12817383 C759.15178372 334.36071905 764.29768213 340.73726462 769.31762695 347.25610352 C770.45348914 348.73027788 771.59252514 350.20200895 772.73364258 351.67211914 C781.58172547 363.07719659 790.09280562 374.62859497 798.10864258 386.63354492 C800.09839825 389.6051947 802.10678241 392.563828 804.11547852 395.52270508 C845.13272475 456.11248221 877.90957199 521.65264201 936.65454102 742.44067383 C936.74973022 743.12589111 936.84491943 743.8111084 936.94299316 744.51708984 C937.70953442 750.10551003 938.32443679 755.70509518 938.90454102 761.31567383 C939.09406342 763.09436859 939.09406342 763.09436859 939.28741455 764.90899658 C942.01174322 791.27468257 942.37469865 817.53036244 942.2956543 844.02075195 C942.27870589 849.74618702 942.28865137 855.47119897 942.30597687 861.19661903 C942.38735069 892.99924314 941.22438652 924.59840282 938.90454102 956.31567383 C938.8230695 957.43485828 938.8230695 957.43485828 938.73995209 958.57665253 C938.14896263 966.62557319 937.44993595 974.65956877 936.65454102 982.69067383 C936.50113754 984.27721771 936.50113754 984.27721771 936.34463501 985.89581299 C927.47675607 1077.15343675 910.3034127 1168.04355839 881.90454102 1255.31567383 C881.60181274 1256.24752502 881.29908447 1257.17937622 880.98718262 1258.13946533 C864.64073103 1308.3286254 845.22473064 1356.95746711 821.90454102 1404.31567383 C821.55552734 1405.02884766 821.20651367 1405.74202148 820.84692383 1406.47680664 C818.57625122 1411.11228489 816.24890706 1415.71710966 813.90454102 1420.31567383 C813.17460937 1421.75668457 813.17460937 1421.75668457 812.42993164 1423.22680664 C804.63200413 1438.59440691 796.474871 1453.66630887 787.61938477 1468.45092773 C785.96416923 1471.21606143 784.3244342 1473.98991646 782.68579102 1476.76489258 C768.65318713 1500.34228096 753.31684395 1523.32696851 736.90454102 1545.31567383 C735.88361643 1546.69451252 734.8627845 1548.07341982 733.84204102 1549.45239258 C724.7593547 1561.6790302 715.41891084 1573.65150017 705.52172852 1585.22973633 C703.09762345 1588.07172948 700.74722702 1590.96857448 698.40454102 1593.87817383 C694.34628333 1598.867358 690.05938536 1603.59237998 685.67797852 1608.29614258 C683.58080049 1610.5567321 681.54460978 1612.86339764 679.52172852 1615.19067383 C670.09077144 1626.00928867 660.03337794 1636.27900276 649.90454102 1646.44067383 C649.12820313 1647.221604 648.35186523 1648.00253418 647.55200195 1648.80712891 C643.42459873 1652.92344649 639.21088412 1656.86846147 634.79370117 1660.67163086 C631.81617066 1663.26282891 628.96290209 1665.98266616 626.09204102 1668.69067383 C621.12615398 1673.33757159 616.05203194 1677.75862831 610.74047852 1682.01098633 C608.0532232 1684.19484395 605.43030261 1686.43526358 602.81518555 1688.70410156 C596.26025037 1694.39060193 589.56375286 1699.80786349 582.62475586 1705.02075195 C580.82286758 1706.37715494 579.029474 1707.74429406 577.23657227 1709.11254883 C561.29689871 1721.22977812 544.88486606 1732.70337721 527.90454102 1743.31567383 C526.90986816 1743.93812988 525.91519531 1744.56058594 524.89038086 1745.2019043 C507.5950566 1755.97583011 489.99555321 1765.93963767 471.90454102 1775.31567383 C470.95450195 1775.81260742 470.00446289 1776.30954102 469.02563477 1776.8215332 C396.32173756 1814.74263067 315.19866672 1837.36781308 10.26000977 1830.34301758 C-66.33169759 1806.08955742 -143.06767296 1763.68003138 -192.09545898 1698.31567383 C-192.53132324 1697.73672363 -192.9671875 1697.15777344 -193.41625977 1696.5612793 C-199.69879773 1688.15876585 -204.96756393 1679.45164253 -210.09545898 1670.31567383 C-216.13943228 1692.82058616 -221.90086209 1715.39189009 -227.53295898 1738.00317383 C-228.9205164 1743.57229978 -230.30844643 1749.14133277 -231.69702148 1754.71020508 C-231.87455019 1755.42221069 -232.0520789 1756.13421631 -232.23498726 1756.86779785 C-236.58723508 1774.31854701 -240.99051534 1791.75632731 -245.40795898 1809.19067383 C-245.70592125 1810.36673313 -245.70592125 1810.36673313 -246.00990295 1811.56655121 C-252.6295818 1837.69062006 -259.30818914 1863.79934734 -266.02519417 1889.89855003 C-270.72967694 1908.17845826 -275.41147956 1926.46392444 -280.06420898 1944.75708008 C-325.39901871 2122.97409834 -325.39901871 2122.97409834 -402.34301758 2286.1003418 C-404.05328975 2289.23830286 -405.74372561 2292.38607895 -407.42749023 2295.53833008 C-414.41138564 2308.59020018 -421.70506344 2321.43180591 -429.23901367 2334.17358398 C-431.16886033 2337.43990783 -433.08953275 2340.71151576 -435.00952148 2343.98364258 C-443.20358556 2357.91744726 -451.58428289 2371.71754832 -460.2331543 2385.3737793 C-461.45947351 2387.31100354 -462.68285955 2389.25008818 -463.90307617 2391.19116211 C-485.38138841 2425.35593563 -508.28238488 2458.73961943 -532.09545898 2491.31567383 C-532.64379395 2492.0673584 -533.19212891 2492.81904297 -533.75708008 2493.59350586 C-543.03340402 2506.29797834 -552.52659696 2518.83056223 -562.09545898 2531.31567383 C-563.07992589 2532.60336399 -564.06431033 2533.8911172 -565.04858398 2535.17895508 C-567.38587723 2538.23360954 -569.73847343 2541.27617987 -572.09545898 2544.31567383 C-572.81217773 2545.25024414 -573.52889648 2546.18481445 -574.26733398 2547.14770508 C-582.9209369 2558.2574998 -582.9209369 2558.2574998 -589.09545898 2560.31567383 C-601.10103116 2561.22541284 -601.10103116 2561.22541284 -606.65795898 2558.69067383 C-607.86452148 2557.51504883 -607.86452148 2557.51504883 -609.09545898 2556.31567383 C-610.42577148 2555.17098633 -610.42577148 2555.17098633 -611.78295898 2554.00317383 C-619.35909096 2544.20335121 -618.82823312 2523.75119197 -620.40795898 2511.87817383 C-620.63281479 2510.19853043 -620.63281479 2510.19853043 -620.86221313 2508.48495483 C-627.89189682 2455.74912132 -632.85975096 2402.80963155 -635.78295898 2349.69067383 C-635.8438974 2348.58932098 -635.90483582 2347.48796814 -635.96762085 2346.35324097 C-637.65803696 2315.37759429 -638.30433091 2284.45526896 -638.28295898 2253.44067383 C-638.28269211 2252.56815727 -638.28242523 2251.69564072 -638.28215027 2250.79668427 C-638.27097945 2221.59791907 -637.96240721 2192.4650167 -636.09545898 2163.31567383 C-636.03229492 2162.32589539 -635.96913086 2161.33611694 -635.90405273 2160.31634521 C-633.56009707 2124.17820771 -629.91829702 2088.12330832 -624.47045898 2052.31567383 C-624.35573242 2051.55641602 -624.24100586 2050.7971582 -624.12280273 2050.01489258 C-621.58497756 2033.73501406 -618.42287849 2017.5775933 -614.94311523 2001.47583008 C-614.75056908 2000.58062716 -614.55802292 1999.68542423 -614.35964203 1998.76309395 C-610.3298115 1980.05344353 -605.94910518 1961.43469143 -601.46547699 1942.82944489 C-600.38236677 1938.32895381 -599.3056526 1933.8269333 -598.22875977 1929.32495117 C-597.89697566 1927.93798286 -597.89697566 1927.93798286 -597.55848885 1926.522995 C-597.1076252 1924.63814647 -596.65678726 1922.7532918 -596.20597458 1920.86843109 C-595.52411742 1918.01840379 -594.8416614 1915.16852042 -594.15908813 1912.31866455 C-589.59972474 1893.27672005 -585.10113639 1874.22057593 -580.61158371 1855.16207123 C-578.8666273 1847.75521318 -577.12040214 1840.34865403 -575.37438011 1832.94204712 C-574.92435339 1831.03299562 -574.47435274 1829.12393798 -574.02437782 1827.21487427 C-570.30077961 1811.41748149 -566.56913434 1795.62200004 -562.83374023 1779.82739258 C-562.43403487 1778.13723998 -562.43403487 1778.13723998 -562.02625465 1776.41294289 C-560.93834152 1771.81273192 -559.85040065 1767.21252752 -558.76243687 1762.61232853 C-549.376808 1722.92727041 -540.01294836 1683.23720908 -530.68191147 1643.53927994 C-521.52528896 1604.58481712 -512.31642106 1565.64282471 -503.09530163 1526.70359373 C-493.38753561 1485.7092693 -483.70493527 1444.70917418 -474.06582642 1403.69863892 C-467.6872329 1376.56048499 -461.28976429 1349.42691387 -454.86531258 1322.29957771 C-453.26861403 1315.55672343 -451.67429979 1308.81330879 -450.08129883 1302.06958008 C-449.19285939 1298.30914695 -448.30433105 1294.54873483 -447.41577148 1290.78833008 C-447.19765682 1289.86513096 -446.97954216 1288.94193184 -446.75481796 1287.99075699 C-444.04197187 1276.51071196 -441.31488414 1265.03418824 -438.56969357 1253.56183338 C-436.7384771 1245.90807476 -434.91529671 1238.25243185 -433.09790897 1230.59537792 C-431.82638644 1225.2407473 -430.54435205 1219.88878702 -429.25407028 1214.53864765 C-428.46938304 1211.27334986 -427.69518207 1208.00563441 -426.92399979 1204.73712349 C-426.56682263 1203.23275808 -426.20532195 1201.72941143 -425.83912277 1200.22721672 C-425.34004554 1198.1774059 -424.85668579 1196.12447898 -424.37695312 1194.07006836 C-423.96685753 1192.35571091 -423.96685753 1192.35571091 -423.54847717 1190.60671997 C-422.79216702 1185.1123454 -423.82845852 1180.36805324 -425.99389648 1175.32348633 C-426.38520752 1174.38907715 -426.77651855 1173.45466797 -427.1796875 1172.49194336 C-427.60564209 1171.48502441 -428.03159668 1170.47810547 -428.47045898 1169.44067383 C-459.33410084 1094.05105475 -472.40873304 1009.67604044 -468.34545898 923.69067383 C-468.28160507 922.44308289 -468.28160507 922.44308289 -468.21646118 921.17028809 C-466.83451559 894.91674797 -463.45698201 869.06581245 -458.09545898 843.31567383 C-457.87664063 842.25364746 -457.65782227 841.19162109 -457.43237305 840.09741211 C-444.79289801 779.69759854 -419.78298436 719.13914191 -380.09545898 671.31567383 C-379.64041992 670.76733887 -379.18538086 670.21900391 -378.71655273 669.65405273 C-375.23941113 665.48495995 -371.69050291 661.38335451 -368.09545898 657.31567383 C-367.61351074 656.76911133 -367.1315625 656.22254883 -366.63500977 655.65942383 C-354.66864905 642.17346092 -341.55376193 630.08388478 -327.09545898 619.31567383 C-326.23936035 618.6742041 -326.23936035 618.6742041 -325.3659668 618.01977539 C-316.62669181 611.50844868 -307.58119005 605.67786317 -298.09545898 600.31567383 C-297.38824707 599.91348633 -296.68103516 599.51129883 -295.95239258 599.09692383 C-275.02010536 587.31186659 -252.60583407 578.98168005 -229.09545898 574.12817383 C-228.34949463 573.9730835 -227.60353027 573.81799316 -226.83496094 573.65820312 C-212.79278682 570.9254224 -198.80958311 569.93299906 -184.53295898 570.00317383 C-183.3656575 570.00590805 -183.3656575 570.00590805 -182.17477417 570.00869751 C-148.15286089 570.14194997 -115.12459843 576.95751845 -85.09545898 593.31567383 C-84.07452148 593.85708008 -83.05358398 594.39848633 -82.00170898 594.95629883 C-51.28526087 611.96594483 -28.55524913 638.76697885 -12.09545898 669.31567383 C-11.73355469 669.98195801 -11.37165039 670.64824219 -10.9987793 671.3347168 C6.29159047 703.77277414 13.87283881 742.86219579 14.90454102 779.31567383 C14.93177246 780.15066406 14.95900391 780.9856543 14.98706055 781.84594727 C16.53337258 836.48230579 4.91060869 891.26576633 -8.49053955 943.93054199 C-9.09204098 946.30219702 -9.68718188 948.67536233 -10.28051758 951.04907227 C-22.97531682 1001.74550883 -38.72511303 1051.63346885 -54.15240479 1101.54974365 C-94.68994005 1221.23486457 -94.68994005 1221.23486457 -120.09545898 1344.31567383 C-120.18682129 1345.04061035 -120.27818359 1345.76554687 -120.37231445 1346.51245117 C-121.27743061 1354.30354905 -121.33886648 1362.10687618 -121.34545898 1369.94067383 C-121.34613373 1370.66566071 -121.34680847 1371.39064758 -121.34750366 1372.13760376 C-121.26228467 1430.18448244 -99.1345204 1483.54917464 -59.09545898 1525.31567383 C-57.75354492 1526.73686523 -57.75354492 1526.73686523 -56.38452148 1528.18676758 C-49.48662317 1535.31729296 -42.02634223 1541.39626421 -34.09545898 1547.31567383 C-32.90243164 1548.21866211 -32.90243164 1548.21866211 -31.68530273 1549.13989258 C24.17192049 1589.82601814 95.02742564 1601.83444473 162.50683594 1592.05053711 C193.79769651 1587.13294202 224.41198519 1578.22691365 252.90454102 1564.31567383 C254.69478148 1563.4651521 256.48515056 1562.61490106 258.27563477 1561.76489258 C292.21276129 1545.43730084 322.25986314 1522.7124963 349.90454102 1497.31567383 C350.78360107 1496.51226563 350.78360107 1496.51226563 351.68041992 1495.69262695 C361.49241909 1486.78135636 361.49241909 1486.78135636 370.44360352 1477.02661133 C371.96822502 1475.24109202 373.58944466 1473.63209023 375.27954102 1472.00317383 C378.97047631 1468.36952578 382.16684433 1464.40459905 385.40844727 1460.37036133 C387.11860888 1458.27748749 388.8376692 1456.2273654 390.61938477 1454.19848633 C420.0291889 1420.70830371 443.54378893 1382.07462588 464.51977539 1342.8972168 C465.81045896 1340.49106586 467.11391639 1338.09230374 468.42016602 1335.69458008 C509.18990465 1260.28367284 534.85779485 1175.82380325 579.90454102 879.31567383 C579.9675943 877.84967743 579.9675943 877.84967743 580.03192139 876.35406494 C580.80159277 858.00752067 581.14607496 839.67797376 581.15454102 821.31567383 C581.15498287 820.65041309 581.15542473 819.98515236 581.15587997 819.29973221 C581.18381209 738.44379437 568.82444106 658.1904268 523.90454102 551.31567383 C523.51266602 550.48422852 523.12079102 549.6527832 522.71704102 548.79614258 C505.63915458 512.62102504 482.69144703 478.81189069 456.90454102 448.31567383 C456.4462793 447.76862793 455.98801758 447.22158203 455.51586914 446.65795898 C449.96404307 440.03583615 444.39533534 433.54641173 438.13500977 427.57348633 C436.19895396 425.61369603 434.41886072 423.60848355 432.62719727 421.51879883 C429.03817286 417.3840664 425.17899498 413.64703369 421.15454102 409.94067383 C420.45498291 409.29146973 419.7554248 408.64226562 419.03466797 407.97338867 C416.99502311 406.0833974 414.95009716 404.19926208 412.90454102 402.31567383 C411.87181304 401.35753004 410.83924168 400.3992174 409.80688477 399.44067383 C403.69863259 393.81580851 397.40290399 388.48251513 390.90454102 383.31567383 C390.28788574 382.82115723 389.67123047 382.32664062 389.03588867 381.81713867 C363.97041027 361.76111712 337.16863554 344.50026268 308.90454102 329.31567383 C308.05520996 328.85483398 307.20587891 328.39399414 306.33081055 327.91918945 C232.49834224 287.96938359 149.69939121 266.75786431 66.65454102 257.56567383 C65.7578067 257.46462341 64.86107239 257.363573 63.93716431 257.25946045 C34.78927194 254.0133272 5.72413411 252.97550096 -23.57958984 253.05493164 C-27.81306121 253.06633438 -32.04628126 253.05952099 -36.27974415 253.04806137 C-65.26718949 252.9813872 -93.95761771 254.33122468 -122.78295898 257.56567383 C-123.74483124 257.6720517 -124.70670349 257.77842957 -125.69772339 257.88803101 C-157.562004 261.43646365 -188.88590672 266.99562979 -220.09545898 274.31567383 C-220.76861145 274.47338257 -221.44176392 274.63109131 -222.13531494 274.7935791 C-273.85565431 286.9763869 -323.42989632 305.52509127 -371.1081543 328.85571289 C-373.97192012 330.25529769 -376.84193549 331.64134402 -379.71264648 333.02661133 C-393.5836388 339.77834066 -406.87363352 347.37655705 -420.09545898 355.31567383 C-420.94188965 355.82163086 -421.78832031 356.32758789 -422.66040039 356.84887695 C-433.00629495 363.04432298 -443.15665246 369.4857854 -453.09545898 376.31567383 C-453.74272949 376.75959473 -454.39 377.20351562 -455.05688477 377.66088867 C-473.02436825 390.03616195 -490.33999119 403.34682014 -507.09545898 417.31567383 C-507.98539551 418.05696533 -507.98539551 418.05696533 -508.89331055 418.81323242 C-517.63126925 426.12375049 -525.99038479 433.79541155 -534.27709961 441.6105957 C-536.58895297 443.77842383 -538.92471088 445.91927518 -541.26269531 448.05883789 C-549.20921446 455.33675986 -556.98735989 462.73089669 -563.99389648 470.93286133 C-566.31409644 473.56357131 -568.70968167 476.11199442 -571.11669922 478.66308594 C-576.59900201 484.47463014 -581.9025545 490.33483414 -586.89233398 496.58129883 C-588.92826744 499.10816659 -591.01238573 501.5803521 -593.12329102 504.04418945 C-599.03317894 510.94690579 -604.64027395 518.04908517 -610.09545898 525.31567383 C-610.60415527 525.98775879 -611.11285156 526.65984375 -611.63696289 527.35229492 C-656.17993274 586.29487439 -690.15003029 652.53130771 -714.09545898 722.31567383 C-714.49587402 723.46293945 -714.89628906 724.61020508 -715.30883789 725.79223633 C-738.82364755 793.52397967 -750.90505825 866.65354979 -752.09545898 938.31567383 C-752.10641602 938.96842285 -752.11737305 939.62117188 -752.12866211 940.29370117 C-753.39018346 1019.34285527 -742.0169852 1098.511241 -705.08422852 1169.4074707 C-704.07050628 1171.36382947 -703.08037313 1173.33100233 -702.09155273 1175.30004883 C-692.8723505 1193.43445247 -681.61458315 1210.30852775 -669.09545898 1226.31567383 C-668.160069 1227.52753216 -667.2251687 1228.73976862 -666.29077148 1229.95239258 C-662.28315177 1235.12554402 -658.21415828 1240.214269 -653.92041016 1245.15332031 C-641.20723487 1259.81273218 -629.75048264 1276.0573631 -629.72045898 1296.12817383 C-629.6959668 1296.94737305 -629.67147461 1297.76657227 -629.64624023 1298.6105957 C-629.62069335 1304.27774648 -630.46567012 1309.59854356 -631.72802734 1315.10717773 C-631.9904754 1316.26842871 -631.9904754 1316.26842871 -632.25822544 1317.45313931 C-634.80811429 1328.59688382 -637.63610315 1339.67401665 -640.43530273 1350.75708008 C-641.04549793 1353.17924444 -641.65556728 1355.6014405 -642.26551819 1358.02366638 C-643.53713388 1363.07089423 -644.81063859 1368.11764071 -646.08544922 1373.1640625 C-647.70763083 1379.58644038 -649.32446824 1386.01014987 -650.93981075 1392.43425083 C-652.19604948 1397.42725777 -653.45544735 1402.41946392 -654.71573067 1407.41145134 C-655.31272525 1409.77793461 -655.90870379 1412.14467446 -656.50358391 1414.51169014 C-661.82073605 1435.65735187 -661.82073605 1435.65735187 -664.796875 1445.96386719 C-665.07650919 1446.94768167 -665.07650919 1446.94768167 -665.36179256 1447.95137119 C-669.14392284 1460.7247989 -676.59826838 1472.46365571 -687.97045898 1479.69067383 C-689.66116487 1480.59926691 -691.36987435 1481.47520643 -693.09545898 1482.31567383 C-693.89081055 1482.72817383 -694.68616211 1483.14067383 -695.50561523 1483.56567383 C-707.82242734 1489.04827334 -723.65361853 1487.50650364 -736.05688477 1483.09936523 C-742.73341839 1480.53269782 -749.20909944 1477.51726173 -755.67016602 1474.45629883 C-757.8836267 1473.4152994 -760.10771874 1472.40575706 -762.34155273 1471.40942383 C-789.48357084 1459.19600344 -814.74350774 1442.69345977 -838.09545898 1424.31567383 C-838.75980957 1423.79408691 -839.42416016 1423.2725 -840.10864258 1422.73510742 C-848.97288171 1415.73989762 -857.42431552 1408.41895192 -865.63891602 1400.67504883 C-867.86153868 1398.60070035 -870.1357597 1396.58540652 -872.40795898 1394.56567383 C-878.73775076 1388.88115209 -884.65625636 1382.94732395 -890.19702148 1376.49145508 C-892.36290904 1374.00915185 -894.60422856 1371.60512238 -896.84545898 1369.19067383 C-902.07938126 1363.4443947 -906.84983452 1357.40733847 -911.58862305 1351.25073242 C-913.13883324 1349.25997318 -914.71878373 1347.29623423 -916.30639648 1345.33520508 C-967.05739612 1282.18510598 -998.36893241 1203.51216992 -1017.56414795 1125.46899414 C-1018.06192682 1123.45157443 -1018.56690232 1121.43611988 -1019.07446289 1119.42114258 C-1027.28284255 1086.53509033 -1032.3090147 1052.79804088 -1035.97045898 1019.12817383 C-1036.11671722 1017.79603348 -1036.11671722 1017.79603348 -1036.26593018 1016.4369812 C-1036.95467107 1010.0695798 -1037.54706779 1003.69659003 -1038.09545898 997.31567383 C-1038.18761688 996.27780731 -1038.27977478 995.2399408 -1038.37472534 994.17062378 C-1040.27037062 972.18726992 -1040.43898501 950.25592241 -1040.41113281 928.20556641 C-1040.40651036 924.24972129 -1040.41340998 920.29418434 -1040.43164062 916.33837891 C-1040.5494404 890.5056754 -1039.74596599 865.01815378 -1037.09545898 839.31567383 C-1036.99077301 838.28082855 -1036.88608704 837.24598328 -1036.77822876 836.17977905 C-1036.21902461 830.75434338 -1035.57087489 825.3462196 -1034.84545898 819.94067383 C-1034.74285767 819.15925018 -1034.64025635 818.37782654 -1034.5345459 817.57272339 C-1023.77892548 736.10425427 -1000.73313655 656.86100973 -951.09545898 546.31567383 C-950.38535871 544.86928737 -949.67566738 543.42270001 -948.96655273 541.97583008 C-947.04370879 538.07145575 -945.07386699 534.19212236 -943.09545898 530.31567383 C-942.64267578 529.42267578 -942.18989258 528.52967773 -941.72338867 527.60961914 C-933.7147638 511.84603624 -925.19688639 496.47338723 -916.09545898 481.31567383 C-915.18570312 479.79151855 -915.18570312 479.79151855 -914.25756836 478.23657227 C-906.28618746 464.91894061 -897.9308303 451.90789543 -889.22045898 439.06567383 C-888.78796844 438.42790009 -888.35547791 437.79012634 -887.90988159 437.13302612 C-879.88989869 425.32985584 -871.69887277 413.64018094 -863.09545898 402.25317383 C-862.34220337 401.25350586 -862.34220337 401.25350586 -861.57373047 400.23364258 C-860.08356815 398.25900675 -858.59007619 396.28693898 -857.09545898 394.31567383 C-856.66765137 393.74993652 -856.23984375 393.18419922 -855.79907227 392.60131836 C-845.7796788 379.37063179 -835.25528322 366.54454016 -824.47241211 353.9309082 C-823.05424553 352.2673284 -821.64470582 350.59671507 -820.23608398 348.92504883 C-813.41326187 340.85758407 -806.31043097 333.0980713 -799.05517578 325.41894531 C-797.62951883 323.88885503 -796.21885708 322.34475103 -794.81738281 320.79248047 C-787.19402197 312.35869141 -779.22799018 304.29517218 -771.17871094 296.26855469 C-768.89783921 293.99307799 -766.62240924 291.71225666 -764.34741211 289.4309082 C-762.87442558 287.95858202 -761.40112912 286.48656583 -759.92749023 285.01489258 C-759.25957962 284.34495773 -758.59166901 283.67502289 -757.90351868 282.98478699 C-754.02972374 279.1299354 -750.05248089 275.45222843 -745.90771484 271.88981628 C-742.95413745 269.32431123 -740.12837292 266.62470117 -737.28295898 263.94067383 C-732.33797036 259.31295072 -727.2831866 254.91739565 -721.99389648 250.68286133 C-718.5201327 247.84579818 -715.15533293 244.89676365 -711.78295898 241.94067383 C-705.35472113 236.33035426 -698.75663783 231.00098603 -692.0012207 225.79174805 C-689.94218613 224.19695904 -687.89517009 222.58755092 -685.84936523 220.97583008 C-675.45863596 212.80729685 -664.86691652 204.97341364 -654.09545898 197.31567383 C-652.66963076 196.29620827 -651.24384893 195.27667783 -649.81811523 194.25708008 C-625.70039732 177.06436179 -600.74058309 161.12887139 -575.09545898 146.31567383 C-574.16088867 145.77555664 -573.22631836 145.23543945 -572.26342773 144.67895508 C-559.76299783 137.47966508 -547.11670999 130.61953462 -534.29467773 124.01098633 C-531.2779096 122.45530478 -528.27492966 120.88414945 -525.30249023 119.24536133 C-512.57352725 112.2436993 -499.32460815 106.29920399 -486.09545898 100.31567383 C-485.46452332 100.02996521 -484.83358765 99.74425659 -484.18353271 99.44989014 C-451.48964721 84.66524992 -418.06140963 71.86272586 -384.09545898 60.31567383 C-383.46136108 60.09951416 -382.82726318 59.88335449 -382.1739502 59.66064453 C-293.4361799 29.4611125 -200.11878102 12.06729434 -106.84545898 4.06567383 C-105.95611664 3.98854156 -105.06677429 3.9114093 -104.15048218 3.8319397 C-98.56973584 3.35487118 -92.98669694 2.93103649 -87.3989563 2.54452515 C-85.09383812 2.38483701 -82.78906867 2.22006921 -80.48458862 2.05142212 C-53.66774109 0.1294258 -26.87702214 -0.02756758 0 0 Z " fill="#000000" transform="translate(2097.095458984375,767.684326171875)"/>
</svg>
